<?xml version="1.0" encoding="UTF-8" standalone="no"?>
<!-- Generator: Adobe Illustrator 16.0.0, SVG Export Plug-In . SVG Version: 6.00 Build 0)  -->

<svg
   xmlns:dc="http://purl.org/dc/elements/1.1/"
   xmlns:cc="http://creativecommons.org/ns#"
   xmlns:rdf="http://www.w3.org/1999/02/22-rdf-syntax-ns#"
   xmlns:svg="http://www.w3.org/2000/svg"
   xmlns="http://www.w3.org/2000/svg"
   xmlns:sodipodi="http://sodipodi.sourceforge.net/DTD/sodipodi-0.dtd"
   xmlns:inkscape="http://www.inkscape.org/namespaces/inkscape"
   version="1.1"
   id="Layer_1"
   x="0px"
   y="0px"
   width="64"
   height="64"
   viewBox="0 0 63.999999 63.999999"
   enable-background="new 0 0 99.33 99.33"
   xml:space="preserve"
   inkscape:version="0.48.5 r10040"
   sodipodi:docname="designpro.svg"><metadata
   id="metadata54"><rdf:RDF><cc:Work
       rdf:about=""><dc:format>image/svg+xml</dc:format><dc:type
         rdf:resource="http://purl.org/dc/dcmitype/StillImage" /></cc:Work></rdf:RDF></metadata><defs
   id="defs52" /><sodipodi:namedview
   pagecolor="#ffffff"
   bordercolor="#666666"
   borderopacity="1"
   objecttolerance="10"
   gridtolerance="10"
   guidetolerance="10"
   inkscape:pageopacity="0"
   inkscape:pageshadow="2"
   inkscape:window-width="1366"
   inkscape:window-height="705"
   id="namedview50"
   showgrid="false"
   inkscape:zoom="2.3759186"
   inkscape:cx="49.665001"
   inkscape:cy="49.665001"
   inkscape:window-x="-8"
   inkscape:window-y="-8"
   inkscape:window-maximized="1"
   inkscape:current-layer="Layer_1" />

<g
   id="g3031"
   transform="matrix(0.64153325,0,0,0.89623301,0.13792965,19.1525)"><rect
     style="fill:#4bb1bd;stroke:#000000;stroke-width:0.67155296;stroke-miterlimit:10"
     id="rect3"
     height="57.565777"
     width="91.657852"
     stroke-miterlimit="10"
     y="-18.766174"
     x="5.0953526" /><g
     transform="translate(0,-35.330001)"
     id="Layer_19">
	<g
   id="g6">
		<path
   style="fill:#010d0b"
   inkscape:connector-curvature="0"
   id="path8"
   d="M 99.546,77.87 V 13.96 H -0.215 v 63.91 h 40.72 v 4.109 H 19.215 V 85.37 H 78.816 V 81.979 H 57.996 V 77.87 h 41.55 z M 7.085,68.46 V 21.25 h 85.17 V 68.46 H 7.085 l 0,0 z" />
		<path
   style="fill:#010d0b"
   inkscape:connector-curvature="0"
   id="path10"
   d="M 22.975,40.44 H 76.206 V 27.39 H 22.975 v 13.05 z m 1.06,-11.99 h 51.11 V 39.38 H 24.035 V 28.45 z" />
		<path
   style="fill:#010d0b"
   inkscape:connector-curvature="0"
   id="path12"
   d="m 22.925,54.278 h 16.37 V 42.52 h -16.37 v 11.758 z m 1.06,-10.708 h 14.25 v 9.65 h -14.25 v -9.65 z" />
		<path
   style="fill:#010d0b"
   inkscape:connector-curvature="0"
   id="path14"
   d="M 41.335,54.278 H 57.706 V 42.52 H 41.335 v 11.758 z m 1.06,-10.708 h 14.25 v 9.65 h -14.25 v -9.65 z" />
		<path
   style="fill:#010d0b"
   inkscape:connector-curvature="0"
   id="path16"
   d="M 76.245,42.52 H 59.886 V 54.29 H 76.255 V 42.52 h -0.01 z m -1.051,10.7 h -14.25 v -9.65 h 14.25 v 9.65 z" />
		<rect
   style="fill:#010d0b"
   id="rect18"
   height="1.03"
   width="14.75"
   y="56.959999"
   x="22.924999" />
		<rect
   style="fill:#010d0b"
   id="rect20"
   height="1.021"
   width="16.370001"
   y="58.84"
   x="22.924999" />
		<rect
   style="fill:#010d0b"
   id="rect22"
   height="1.021"
   width="13.33"
   y="60.790001"
   x="22.924999" />
		<rect
   style="fill:#010d0b"
   id="rect24"
   height="1.021"
   width="14.92"
   y="62.91"
   x="22.924999" />
		<rect
   style="fill:#010d0b"
   id="rect26"
   height="1.021"
   width="9.5600004"
   y="64.899002"
   x="21.965" />
		<rect
   style="fill:#010d0b"
   id="rect28"
   height="1.03"
   width="14.75"
   y="56.959999"
   x="41.334999" />
		<rect
   style="fill:#010d0b"
   id="rect30"
   height="1.021"
   width="16.371"
   y="58.84"
   x="41.334999" />
		<rect
   style="fill:#010d0b"
   id="rect32"
   height="1.021"
   width="13.33"
   y="60.790001"
   x="41.334999" />
		<rect
   style="fill:#010d0b"
   id="rect34"
   height="1.021"
   width="14.92"
   y="62.91"
   x="41.334999" />
		<rect
   style="fill:#010d0b"
   id="rect36"
   height="1.021"
   width="9.5600004"
   y="64.899002"
   x="40.384998" />
		<rect
   style="fill:#010d0b"
   id="rect38"
   height="1.021"
   width="14.75"
   y="56.880001"
   x="60.046001" />
		<rect
   style="fill:#010d0b"
   id="rect40"
   height="1.021"
   width="16.368999"
   y="58.759998"
   x="60.046001" />
		<rect
   style="fill:#010d0b"
   id="rect42"
   height="1.021"
   width="13.33"
   y="60.709999"
   x="60.046001" />
		<rect
   style="fill:#010d0b"
   id="rect44"
   height="1.021"
   width="14.92"
   y="62.830002"
   x="60.046001" />
		<rect
   style="fill:#010d0b"
   id="rect46"
   height="1.021"
   width="9.5609999"
   y="64.811996"
   x="59.084999" />
		<path
   style="fill:#010d0b"
   inkscape:connector-curvature="0"
   id="path48"
   d="m 47.375,23.12 h -24.46 v 2.97 h 24.46 v -2.97 z m -1.06,1.92 h -22.34 v -0.86 h 22.34 v 0.86 z" />
	</g>
</g></g>
</svg>