<?xml version="1.0" encoding="utf-8"?>
<!-- Generator: Adobe Illustrator 16.0.0, SVG Export Plug-In . SVG Version: 6.00 Build 0)  -->
<!DOCTYPE svg PUBLIC "-//W3C//DTD SVG 1.1//EN" "http://www.w3.org/Graphics/SVG/1.1/DTD/svg11.dtd">
<svg version="1.1" id="Layer_1" xmlns="http://www.w3.org/2000/svg" xmlns:xlink="http://www.w3.org/1999/xlink" x="0px" y="0px"
	 width="64px" height="64px" viewBox="0 0 64 64" enable-background="new 0 0 64 64" xml:space="preserve">
<g>
	<path fill="#4AB1BC" d="M40.12,41.15c-0.07,0.15-0.22,0.29-0.22,0.42v13.45c0,2.22-1.8,3.95-3.93,3.95H8.9
		c-2.14,0-3.91-1.72-3.91-3.95V18.99c0-2.22,1.77-4.08,3.91-4.08h27.06c0.78,0,1.5,0.27,2.11,0.68l4.34-5
		c-0.76-0.47-1.65-0.72-2.61-0.72H4.85C2.15,9.87,0,12.12,0,14.92v44.1c0,2.92,2.24,5.28,5.05,5.28H39.8c2.81,0,5.08-2.36,5.08-5.28
		v-23.3l-4.19,4.88C40.51,40.82,40.33,41,40.12,41.15z"/>
	<path fill="#4AB1BC" d="M11.43,21.82c-1.38,0-2.49,1.09-2.49,2.52c0,1.43,1.12,2.52,2.49,2.52h16.91l4.43-5.04H11.43z"/>
	<path fill="#4AB1BC" d="M25.56,30.61c0.02-0.09,0.05-0.15,0.08-0.29H11.43c-1.38,0-2.49,1.16-2.49,2.59c0,1.42,1.12,2.59,2.49,2.59
		h12.77L25.56,30.61z"/>
	<path fill="#4AB1BC" d="M20.05,38.96h-7.47h-1.15c-1.38,0-2.49,1.16-2.49,2.59c0,1.43,1.11,2.59,2.49,2.59h4.4h1.38h2.84
		c1.1,0,2.04-0.76,2.36-1.79c0.02-0.28,0.06-0.57,0.13-0.83c-0.01-1.3-0.93-2.36-2.13-2.54C20.3,38.97,20.17,38.96,20.05,38.96z"/>
	<path fill="#4AB1BC" d="M46.74,10.09L30.73,28.64l-1.08,1.26l8.66,8.08l1.08-1.25l16-18.55l1.29-1.49L48.02,8.6L46.74,10.09z
		 M45.85,18.48L35.53,30.44c-0.13,0.15-0.31,0.24-0.5,0.25c-0.19,0.01-0.38-0.06-0.53-0.19l-0.51-0.48
		c-0.3-0.28-0.32-0.76-0.05-1.07l10.32-11.96c0.13-0.15,0.31-0.24,0.51-0.25c0.19-0.01,0.38,0.06,0.53,0.19l0.51,0.48
		C46.1,17.69,46.12,18.17,45.85,18.48z M48.85,12.8l0.51,0.47c0.3,0.28,0.32,0.75,0.06,1.07c0,0,0,0,0,0l-0.89,1.04
		c-0.04,0.04-0.08,0.08-0.12,0.11c-0.12,0.08-0.25,0.13-0.39,0.14c-0.19,0.01-0.38-0.06-0.53-0.19l-0.51-0.48
		c-0.14-0.13-0.23-0.32-0.24-0.52c-0.01-0.2,0.06-0.4,0.19-0.55l0.9-1.04C48.09,12.55,48.55,12.52,48.85,12.8z"/>
	<polygon fill="#4AB1BC" points="49.65,6.72 48.86,7.63 57.52,15.71 58.31,14.8 59.65,13.24 50.99,5.16 	"/>
	<path fill="#4AB1BC" d="M63.14,5.28L58.22,0.7c-0.5-0.46-1.15-0.7-1.82-0.67c-0.67,0.04-1.3,0.35-1.74,0.87l-2.9,3.36l8.66,8.08
		l2.9-3.36C64.26,7.91,64.17,6.25,63.14,5.28z M60.26,8.97l-5.25-4.89l1.52-1.76l5.25,4.9L60.26,8.97z"/>
	<path fill="#4AB1BC" d="M27.31,43.42l9.96-4.24l-8.65-8.07l-2.98,10.75c-0.13,0.48,0.01,1,0.37,1.33
		C26.36,43.52,26.87,43.61,27.31,43.42z M29.4,33.97l5.03,4.69l-3.92,1.67l-2.29-2.13L29.4,33.97z"/>
</g>
</svg>
