<?xml version="1.0" encoding="utf-8"?>
<!-- Generator: Adobe Illustrator 16.0.0, SVG Export Plug-In . SVG Version: 6.00 Build 0)  -->
<!DOCTYPE svg PUBLIC "-//W3C//DTD SVG 1.1//EN" "http://www.w3.org/Graphics/SVG/1.1/DTD/svg11.dtd">
<svg version="1.1" id="Layer_1" xmlns="http://www.w3.org/2000/svg" xmlns:xlink="http://www.w3.org/1999/xlink" x="0px" y="0px"
	 width="64px" height="64px" viewBox="0 0 64 64" enable-background="new 0 0 64 64" xml:space="preserve">
<g>
	<polygon fill="#4AB1BC" points="39.27,28.04 38.51,28.04 38.26,29.27 39.02,29.27 	"/>
	<path fill="#4AB1BC" d="M35.73,27.61c0.14-0.66,0.02-1.13-0.55-1.41c0.45-0.22,0.71-0.61,0.81-1.07c0.19-0.89-0.32-1.39-0.93-1.39
		h-1.69l-0.11,0.5h0.45l-0.96,4.52h-0.45l-0.11,0.5h1.78C34.74,29.27,35.48,28.76,35.73,27.61z M34.27,24.25h0.32
		c0.67,0,0.96,0.21,0.82,0.89c-0.12,0.58-0.45,0.88-1.02,0.88h-0.5L34.27,24.25z M33.79,26.51h0.6c0.58,0,0.93,0.27,0.75,1.09
		c-0.17,0.8-0.59,1.17-1.08,1.17h-0.75L33.79,26.51z"/>
	<polygon fill="#4AB1BC" points="39.27,48.8 38.51,48.8 38.26,50.03 39.02,50.03 	"/>
	<polygon fill="#4AB1BC" points="39.27,38.34 38.51,38.34 38.26,39.56 39.02,39.56 	"/>
	<path fill="#4AB1BC" d="M35.98,47.27c0.48-2.27-0.07-2.76-1.17-2.76h-1.46L33.25,45h0.45l-0.96,4.52h-0.45l-0.11,0.5h1.47
		C35.33,50.03,35.73,48.49,35.98,47.27z M34.25,45h0.59c0.49,0,1.02,0.17,0.57,2.27c-0.45,2.08-0.99,2.26-1.66,2.26h-0.45L34.25,45z
		"/>
	<path fill="#4AB1BC" d="M33.78,39.64c0.63,0,1.19-0.38,1.62-0.9l-0.39-0.32c-0.27,0.34-0.7,0.7-1.13,0.7
		c-1.01,0-0.73-1.59-0.58-2.31c0.16-0.73,0.55-2.32,1.56-2.32c0.42,0,0.64,0.31,0.74,0.65l0.53-0.28c-0.18-0.53-0.53-0.89-1.16-0.89
		c-1.44,0-2.03,1.74-2.26,2.84C32.49,37.9,32.34,39.64,33.78,39.64z"/>
	<polygon fill="#4AB1BC" points="39.27,18.4 38.51,18.4 38.26,19.63 39.02,19.63 	"/>
	<path fill="#4AB1BC" d="M33.29,17.92h1.5l0.04,1.81l0.58-0.15l-0.23-5.48h-0.66l-2.56,5.48l0.51,0.15L33.29,17.92z M34.69,14.84
		h0.02l0.07,2.58h-1.24L34.69,14.84z"/>
	<path fill="#4AB1BC" d="M32,0.17c-17.63,0-31.92,14.29-31.92,31.92S14.37,64,32,64c17.63,0,31.92-14.29,31.92-31.92
		S49.63,0.17,32,0.17z M11.27,41.64c-1.11,0-1.93-0.88-1.93-2.06c0-1.26,0.9-2.08,1.9-2.11c1.11,0,1.93,0.85,1.93,2.11
		C13.17,40.77,12.45,41.64,11.27,41.64z M13.77,32.38c-0.69,1.05-1.13,1.96-1.11,3.16v0.54H9.81l-0.05-0.46
		c-0.18-1.52,0.41-2.88,1.36-4.37c0.75-1.11,1.11-1.88,1.11-2.85c0-0.95-0.64-1.59-1.7-1.59c-0.57,0-1.16,0.1-1.65,0.46l-0.57-2.6
		c0.54-0.36,1.75-0.77,3.01-0.77c3.39,0,4.35,2.24,4.35,3.96C15.67,29.63,14.67,31.07,13.77,32.38z M52.76,51.78H31.07l-5.98-3.99
		l5.98-4.36h21.69V51.78z M52.76,41.43H31.07l-5.98-3.99l5.98-4.36h21.69V41.43z M52.76,31.09H31.07l-5.98-3.99l5.98-4.36h21.69
		V31.09z M52.76,20.74H31.07l-5.98-3.99l5.98-4.36h21.69V20.74z"/>
</g>
</svg>
