<?xml version="1.0" encoding="utf-8"?>
<!-- Generator: Adobe Illustrator 16.0.0, SVG Export Plug-In . SVG Version: 6.00 Build 0)  -->
<!DOCTYPE svg PUBLIC "-//W3C//DTD SVG 1.1//EN" "http://www.w3.org/Graphics/SVG/1.1/DTD/svg11.dtd">
<svg version="1.1" id="Layer_1" xmlns="http://www.w3.org/2000/svg" xmlns:xlink="http://www.w3.org/1999/xlink" x="0px" y="0px"
	 width="64px" height="64px" viewBox="0 0 64 64" enable-background="new 0 0 64 64" xml:space="preserve">
<g>
	<circle fill="#4AB1BC" cx="14.28" cy="17.94" r="5.32"/>
	<path fill="#4AB1BC" d="M17.81,24.55c-0.09-0.05-0.18-0.09-0.28-0.13c-0.59-0.39-1.26-0.69-1.94-0.85l-1.33,1.33l-1.28-1.35
		c0,0-0.01,0-0.01,0c-0.69,0.17-1.37,0.46-1.97,0.87c-0.09,0.04-0.18,0.08-0.27,0.13C8.71,25.8,3.47,29.01,3.95,35.4h4.16
		c-0.04-0.36-0.05-0.7-0.04-1.02c-0.17-0.58-0.27-1.2-0.27-1.83c0-3.51,2.81-6.37,6.31-6.46h0.32c3.49,0.08,6.31,2.95,6.31,6.46
		c0,0.65-0.1,1.27-0.28,1.86c0.01,0.32,0,0.65-0.04,1h4.16C25.07,29.01,19.84,25.8,17.81,24.55z"/>
	<path fill="#4AB1BC" d="M38.52,24.55c-0.09-0.05-0.18-0.09-0.28-0.13c-0.59-0.39-1.26-0.69-1.94-0.85l-1.33,1.33l-1.28-1.35
		c-0.01,0-0.01,0-0.02,0c-0.69,0.17-1.37,0.46-1.97,0.87c-0.09,0.04-0.18,0.08-0.27,0.13c-2.02,1.24-7.26,4.46-6.78,10.84h4.16
		c-0.04-0.36-0.05-0.7-0.04-1.02c-0.17-0.58-0.27-1.2-0.27-1.83c0-3.51,2.81-6.37,6.31-6.46h0.32c3.49,0.08,6.31,2.95,6.31,6.46
		c0,0.65-0.1,1.27-0.28,1.86c0.01,0.32,0,0.65-0.04,1h4.16C45.78,29.01,40.55,25.8,38.52,24.55z"/>
	<circle fill="#4AB1BC" cx="14.28" cy="32.41" r="5.32"/>
	<path fill="#4AB1BC" d="M24.6,49.87c0.48-6.38-4.75-9.6-6.78-10.84c-0.09-0.06-0.18-0.09-0.28-0.13c-0.59-0.39-1.26-0.69-1.94-0.85
		l-1.33,1.33l-1.28-1.35c0,0-0.01,0-0.01,0c-0.69,0.17-1.37,0.46-1.97,0.87c-0.09,0.04-0.18,0.08-0.27,0.13
		c-2.03,1.24-7.26,4.46-6.78,10.84h4.16c-0.16-1.46,0.13-2.66,0.72-3.66v3.66h5.41l-1.26-1.72l1.28-8.57h0.03l1.28,8.57l-1.26,1.72
		h5.41v-3.66c0.58,1.01,0.87,2.2,0.71,3.66H24.6z"/>
	<circle fill="#4AB1BC" cx="34.98" cy="32.41" r="5.32"/>
	<path fill="#4AB1BC" d="M45.3,49.87c0.48-6.38-4.75-9.6-6.78-10.84c-0.09-0.06-0.18-0.09-0.28-0.13c-0.59-0.39-1.26-0.69-1.94-0.85
		l-1.33,1.33l-1.28-1.35c-0.01,0-0.01,0-0.02,0c-0.69,0.17-1.37,0.46-1.97,0.87c-0.09,0.04-0.18,0.08-0.27,0.13
		c-2.02,1.24-7.26,4.46-6.78,10.84h4.16c-0.16-1.46,0.14-2.66,0.72-3.66v3.66h5.41l-1.26-1.72l1.28-8.57H35l1.28,8.57l-1.26,1.72
		h5.41v-3.66c0.58,1.01,0.87,2.2,0.71,3.66H45.3z"/>
	<circle fill="#4AB1BC" cx="53.83" cy="5.32" r="5.32"/>
	<circle fill="#4AB1BC" cx="34.98" cy="17.94" r="5.32"/>
	<path fill="#4AB1BC" d="M38.95,9.12c0.07,0.11,0.13,0.22,0.21,0.33l0.49,0.74c1.52,2.22,3.93,4.97,6.95,5.92
		c0.6,0.19,1.2,0.29,1.8,0.32v10.88c0,0.56,0.11,1.08,0.3,1.57c-0.01,0.1-0.03,0.21-0.03,0.31l0,19.77c0,1.35,1.09,2.44,2.44,2.44
		c1.35,0,2.44-1.09,2.44-2.44l0-16.97c0.1,0,0.19,0.01,0.29,0.01c0.02,0,0.04,0,0.06,0v16.96c0,1.35,1.09,2.44,2.44,2.44l0,0
		c1.35,0,2.44-1.09,2.44-2.44l0-19.4c0.13,0.12,0.27,0.24,0.43,0.32c0.32,0.17,0.65,0.25,0.99,0.25c0.73,0,1.44-0.39,1.82-1.08
		c5.83-10.71-2.12-15.58-4.73-17.18c-0.07-0.04-0.14-0.07-0.21-0.1c-0.58-0.38-1.24-0.67-1.9-0.83l-1.33,1.33l-1.28-1.35
		c0,0-0.01,0-0.01,0c-0.64,0.15-1.26,0.42-1.83,0.77c-0.14,0.04-0.28,0.1-0.41,0.17c-0.82,0.46-1.61,0.55-2.46,0.29
		c-2.84-0.89-5.49-5.22-6.26-6.81c-0.21-0.43-0.55-0.74-0.94-0.94l-0.57-0.19c-0.41-0.07-0.84-0.02-1.25,0.17
		c-1.02,0.5-1.46,1.73-0.96,2.76c0.06,0.12,0.19,0.39,0.4,0.76 M53.85,22.81h-0.02l-1.28-1.75l1.28-8.57h0.02l1.28,8.57L53.85,22.81
		z M59.28,25.15v-5.9C60.06,20.74,60.24,22.62,59.28,25.15z"/>
	<rect y="51.4" fill="#4AB1BC" width="64" height="12.6"/>
</g>
</svg>
