<?xml version="1.0" encoding="utf-8"?>
<!-- Generator: Adobe Illustrator 16.0.0, SVG Export Plug-In . SVG Version: 6.00 Build 0)  -->
<!DOCTYPE svg PUBLIC "-//W3C//DTD SVG 1.1//EN" "http://www.w3.org/Graphics/SVG/1.1/DTD/svg11.dtd">
<svg version="1.1" id="Layer_1" xmlns="http://www.w3.org/2000/svg" xmlns:xlink="http://www.w3.org/1999/xlink" x="0px" y="0px"
	 width="64px" height="64px" viewBox="0 0 64 64" enable-background="new 0 0 64 64" xml:space="preserve">
<g>
	<path fill="#4AB1BC" d="M41.28,33.07c-1.05,0-1.9,0.85-1.9,1.9s0.85,1.9,1.9,1.9c1.05,0,1.9-0.85,1.9-1.9S42.33,33.07,41.28,33.07z
		"/>
	<path fill="#4AB1BC" d="M39.22,30.51c-2.47,1.14-3.54,4.06-2.41,6.53c1.14,2.46,4.06,3.54,6.52,2.41c2.47-1.14,3.54-4.06,2.41-6.52
		C44.61,30.45,41.69,29.37,39.22,30.51z M41.28,37.86c-1.59,0-2.88-1.3-2.88-2.88c0-1.59,1.29-2.88,2.88-2.88
		c1.59,0,2.88,1.29,2.88,2.88C44.16,36.56,42.87,37.86,41.28,37.86z"/>
	<path fill="#4AB1BC" d="M53.65,17.08c-1.48,0.68-2.12,2.43-1.44,3.91s2.43,2.12,3.91,1.44c1.48-0.68,2.12-2.43,1.44-3.91
		C56.87,17.05,55.12,16.4,53.65,17.08z M54.88,21.49c-0.95,0-1.73-0.77-1.73-1.73c0-0.95,0.77-1.73,1.73-1.73
		c0.95,0,1.73,0.78,1.73,1.73C56.6,20.71,55.83,21.49,54.88,21.49z"/>
	<circle fill="#4AB1BC" cx="54.88" cy="19.76" r="1.14"/>
	<path fill="#4AB1BC" d="M63.51,19.41c0.12-0.19,0.22-0.39,0.3-0.61c0.31-0.83,0.27-1.74-0.1-2.54l-0.4-0.87
		c-0.47-1.02-1.43-1.73-2.52-1.89c-0.05-0.22-0.13-0.43-0.22-0.64c-0.37-0.81-1.04-1.42-1.87-1.73l-0.9-0.33
		c-1.04-0.39-2.25-0.19-3.12,0.45c-0.92-0.57-2.14-0.67-3.15-0.2l-0.88,0.4c-1.05,0.49-1.73,1.46-1.89,2.53
		c-1.07,0.25-1.98,1.03-2.37,2.08l-0.26,0.71V3.48c0-1.7-1.39-3.09-3.09-3.09H3.09C1.39,0.39,0,1.78,0,3.48v54.95
		c0,1.7,1.39,3.09,3.09,3.09h39.95c1.7,0,3.09-1.39,3.09-3.09V48.14c0.14-0.04,0.27-0.1,0.4-0.16l1.45-0.67
		c0.95-0.44,1.67-1.22,2.03-2.19c0.24-0.67,0.31-1.37,0.18-2.05c0.13,0.01,0.26,0.02,0.4,0.02c0.57,0,1.12-0.12,1.63-0.36
		c0.95-0.43,1.67-1.21,2.03-2.19l0.55-1.5c0.63-1.7-0.01-3.57-1.44-4.56c0.54-0.44,0.95-1.01,1.19-1.67
		c0.36-0.98,0.32-2.04-0.12-2.98l-0.46-1c0.27-0.05,0.52-0.13,0.78-0.24c0.21-0.1,0.4-0.21,0.58-0.34c0.91,0.57,2.13,0.67,3.15,0.2
		l0.87-0.4c1.05-0.48,1.73-1.45,1.89-2.52c0.22-0.05,0.43-0.12,0.63-0.22c0.81-0.37,1.42-1.03,1.73-1.87l0.33-0.9
		C64.35,21.44,64.15,20.28,63.51,19.41z M46.13,19.4c0.01,0.03,0.02,0.06,0.03,0.09c0.09,0.2,0.21,0.4,0.34,0.57
		c-0.12,0.19-0.22,0.4-0.3,0.61c-0.03,0.09-0.05,0.18-0.07,0.28V19.4L46.13,19.4z M17.94,2.01h8.19v0.46h-8.19V2.01z M24.09,60.26
		c-0.91,0-1.65-0.74-1.65-1.65s0.74-1.65,1.65-1.65c0.91,0,1.65,0.74,1.65,1.65S25,60.26,24.09,60.26z M42.42,55.35H3.71V4.1h38.71
		v17.64c-0.59,0.29-1.1,0.72-1.48,1.26c-0.73-0.89-1.84-1.44-3.03-1.44c-0.57,0-1.11,0.12-1.63,0.36l-1.45,0.67
		c-1.65,0.76-2.52,2.54-2.21,4.25c-0.12-0.01-0.25-0.02-0.37-0.02c-1.64,0-3.12,1.02-3.69,2.54l-0.55,1.5
		c-0.36,0.98-0.32,2.04,0.12,2.99c0.3,0.64,0.75,1.18,1.32,1.57c-0.54,0.44-0.95,1.01-1.19,1.67c-0.36,0.98-0.32,2.04,0.12,2.98
		l0.67,1.46c0.63,1.38,2.02,2.27,3.54,2.27c0.23,0,0.47-0.02,0.69-0.06c-0.07,0.69,0.04,1.38,0.34,2.03
		c0.44,0.95,1.22,1.67,2.19,2.03l1.5,0.55c0.44,0.16,0.89,0.24,1.35,0.24c0.57,0,1.12-0.12,1.63-0.36c0.64-0.3,1.18-0.75,1.58-1.32
		c0.16,0.2,0.35,0.38,0.55,0.54V55.35L42.42,55.35z M52.35,38.21l-0.55,1.5c-0.13,0.36-0.4,0.64-0.74,0.8
		c-0.35,0.16-0.73,0.18-1.09,0.04l-1.19-0.44c-0.49,0.72-1.09,1.37-1.78,1.93l0.53,1.15c0.33,0.72,0.01,1.57-0.7,1.9l-1.45,0.67
		c-0.72,0.33-1.57,0.01-1.9-0.7l-0.53-1.15c-0.88,0.17-1.76,0.2-2.63,0.1l-0.44,1.19c-0.13,0.36-0.4,0.64-0.74,0.8
		c-0.35,0.16-0.73,0.17-1.09,0.04l-1.5-0.55c-0.36-0.13-0.64-0.4-0.8-0.74c-0.16-0.35-0.18-0.74-0.04-1.09l0.44-1.19
		c-0.72-0.49-1.37-1.09-1.93-1.78l-1.15,0.53c-0.72,0.33-1.57,0.02-1.9-0.7l-0.67-1.46c-0.33-0.71-0.02-1.57,0.7-1.9l1.15-0.53
		c-0.16-0.88-0.19-1.76-0.1-2.63l-1.19-0.44c-0.36-0.13-0.64-0.4-0.8-0.74c-0.16-0.35-0.17-0.74-0.04-1.09l0.55-1.5
		c0.27-0.72,1.12-1.11,1.84-0.85l1.19,0.44c0.49-0.72,1.09-1.37,1.78-1.93l-0.53-1.15c-0.33-0.71-0.01-1.57,0.7-1.9l1.46-0.67
		c0.72-0.33,1.57-0.02,1.9,0.7l0.53,1.15c0.88-0.16,1.76-0.19,2.63-0.1l0.44-1.19c0.26-0.72,1.12-1.11,1.84-0.85l1.5,0.55
		c0.74,0.27,1.12,1.1,0.85,1.84l-0.44,1.19c0.72,0.49,1.37,1.09,1.93,1.78l1.15-0.53c0.71-0.33,1.57-0.01,1.9,0.7l0.67,1.45
		c0.33,0.72,0.02,1.57-0.7,1.9l-1.15,0.53c0.16,0.88,0.19,1.76,0.1,2.63l1.19,0.44C52.25,36.64,52.63,37.47,52.35,38.21z
		 M61.51,21.69l-0.33,0.9c-0.08,0.21-0.24,0.39-0.44,0.48c-0.21,0.1-0.44,0.11-0.65,0.03l-0.71-0.26c-0.29,0.43-0.65,0.82-1.07,1.16
		l0.32,0.69c0.2,0.43,0.01,0.94-0.42,1.14l-0.87,0.4c-0.43,0.2-0.94,0.01-1.14-0.42l-0.32-0.69c-0.53,0.1-1.05,0.12-1.57,0.06
		l-0.26,0.71c-0.08,0.21-0.24,0.38-0.45,0.48c-0.21,0.09-0.44,0.1-0.65,0.02l-0.9-0.33c-0.21-0.08-0.39-0.24-0.48-0.45
		c-0.1-0.21-0.11-0.44-0.03-0.65l0.26-0.71c-0.43-0.29-0.82-0.65-1.16-1.07l-0.69,0.32c-0.43,0.2-0.94,0.01-1.14-0.42l-0.4-0.87
		c-0.2-0.43-0.01-0.94,0.42-1.14l0.69-0.32c-0.1-0.53-0.12-1.05-0.06-1.57l-0.71-0.26c-0.21-0.08-0.38-0.24-0.48-0.44
		c-0.1-0.21-0.1-0.44-0.03-0.66l0.33-0.9c0.16-0.43,0.67-0.67,1.1-0.51l0.71,0.26c0.3-0.43,0.65-0.82,1.07-1.16l-0.32-0.69
		c-0.2-0.43-0.01-0.94,0.42-1.14l0.87-0.4c0.43-0.2,0.94-0.01,1.14,0.42l0.32,0.69c0.53-0.1,1.05-0.12,1.57-0.06l0.26-0.71
		c0.16-0.43,0.67-0.67,1.1-0.51l0.9,0.33c0.44,0.16,0.67,0.66,0.51,1.1l-0.26,0.71c0.43,0.29,0.82,0.65,1.16,1.07l0.69-0.32
		c0.43-0.2,0.94-0.01,1.14,0.42l0.4,0.87c0.2,0.43,0.01,0.94-0.42,1.14l-0.69,0.32c0.1,0.52,0.12,1.05,0.06,1.57L61,20.59
		C61.45,20.76,61.67,21.25,61.51,21.69z"/>
	<path fill="#4AB1BC" d="M9.9,9.41H7.65c-0.8,0-1.45,0.65-1.45,1.45v4.5c0,0.8,0.65,1.45,1.45,1.45H9.9c0.8,0,1.45-0.65,1.45-1.45
		v-4.5C11.34,10.06,10.7,9.41,9.9,9.41z M10.38,15.36c0,0.27-0.22,0.48-0.48,0.48H7.65c-0.27,0-0.48-0.21-0.48-0.48v-4.5
		c0-0.27,0.22-0.48,0.48-0.48H9.9c0.27,0,0.48,0.21,0.48,0.48V15.36z"/>
	<path fill="#4AB1BC" d="M24.12,9.41h-2.25c-0.8,0-1.45,0.65-1.45,1.45v4.5c0,0.8,0.65,1.45,1.45,1.45h2.25
		c0.8,0,1.45-0.65,1.45-1.45v-4.5C25.57,10.06,24.92,9.41,24.12,9.41z M24.6,15.36c0,0.27-0.22,0.48-0.48,0.48h-2.25
		c-0.27,0-0.48-0.21-0.48-0.48v-4.5c0-0.27,0.22-0.48,0.48-0.48h2.25c0.27,0,0.48,0.21,0.48,0.48V15.36z"/>
	<path fill="#4AB1BC" d="M17.69,20.34h-2.25c-0.8,0-1.45,0.65-1.45,1.45v4.5c0,0.8,0.65,1.45,1.45,1.45h2.25
		c0.8,0,1.45-0.65,1.45-1.45v-4.5C19.14,20.99,18.49,20.34,17.69,20.34z M18.17,26.29c0,0.27-0.22,0.48-0.48,0.48h-2.25
		c-0.27,0-0.48-0.22-0.48-0.48v-4.5c0-0.27,0.22-0.48,0.48-0.48h2.25c0.27,0,0.48,0.22,0.48,0.48V26.29z"/>
	<path fill="#4AB1BC" d="M9.46,30.05H7.21c-0.8,0-1.45,0.65-1.45,1.45V36c0,0.8,0.65,1.45,1.45,1.45h2.25c0.8,0,1.45-0.65,1.45-1.45
		v-4.5C10.9,30.7,10.25,30.05,9.46,30.05z M9.94,36c0,0.27-0.22,0.48-0.48,0.48H7.21c-0.27,0-0.48-0.22-0.48-0.48v-4.5
		c0-0.27,0.22-0.48,0.48-0.48h2.25c0.27,0,0.48,0.22,0.48,0.48V36z"/>
	<path fill="#4AB1BC" d="M17.69,30.05h-2.25c-0.8,0-1.45,0.65-1.45,1.45V36c0,0.8,0.65,1.45,1.45,1.45h2.25
		c0.8,0,1.45-0.65,1.45-1.45v-4.5C19.14,30.7,18.49,30.05,17.69,30.05z M18.17,36c0,0.27-0.22,0.48-0.48,0.48h-2.25
		c-0.27,0-0.48-0.22-0.48-0.48v-4.5c0-0.27,0.22-0.48,0.48-0.48h2.25c0.27,0,0.48,0.22,0.48,0.48V36z"/>
	<path fill="#4AB1BC" d="M16.09,10.33v5.99c0,0.27,0.22,0.48,0.48,0.48c0.27,0,0.48-0.21,0.48-0.48V9.41c0-0.18-0.1-0.35-0.26-0.43
		c-0.16-0.08-0.35-0.07-0.5,0.03l-2.65,1.85c-0.22,0.15-0.27,0.45-0.12,0.67c0.15,0.22,0.45,0.27,0.67,0.12L16.09,10.33z"/>
	<path fill="#4AB1BC" d="M9.66,27.97c0.27,0,0.48-0.21,0.48-0.48v-6.91c0-0.18-0.1-0.34-0.26-0.43c-0.16-0.08-0.35-0.07-0.5,0.03
		l-2.65,1.85c-0.22,0.15-0.27,0.45-0.12,0.67c0.15,0.22,0.45,0.27,0.67,0.12l1.89-1.32v5.99C9.18,27.76,9.39,27.97,9.66,27.97z"/>
	<path fill="#4AB1BC" d="M24.55,20.15c-0.16-0.08-0.35-0.07-0.5,0.03l-2.65,1.85c-0.22,0.15-0.27,0.45-0.12,0.67
		c0.15,0.22,0.45,0.27,0.67,0.12l1.89-1.32v5.99c0,0.27,0.22,0.48,0.48,0.48c0.27,0,0.48-0.22,0.48-0.48v-6.91
		C24.8,20.4,24.7,20.24,24.55,20.15z"/>
	<path fill="#4AB1BC" d="M24.55,29.63c-0.16-0.08-0.35-0.07-0.5,0.03L21.4,31.5c-0.22,0.15-0.27,0.45-0.12,0.67
		c0.15,0.22,0.45,0.27,0.67,0.12l1.89-1.32v5.99c0,0.27,0.22,0.48,0.48,0.48c0.27,0,0.48-0.22,0.48-0.48v-6.91
		C24.8,29.87,24.7,29.71,24.55,29.63z"/>
</g>
</svg>
