<?xml version="1.0" encoding="utf-8"?>
<!-- Generator: Adobe Illustrator 16.0.0, SVG Export Plug-In . SVG Version: 6.00 Build 0)  -->
<!DOCTYPE svg PUBLIC "-//W3C//DTD SVG 1.1//EN" "http://www.w3.org/Graphics/SVG/1.1/DTD/svg11.dtd">
<svg version="1.1" id="Layer_1" xmlns="http://www.w3.org/2000/svg" xmlns:xlink="http://www.w3.org/1999/xlink" x="0px" y="0px"
	 width="64px" height="64px" viewBox="0 0 64 64" enable-background="new 0 0 64 64" xml:space="preserve">
<path fill="#4AB1BC" d="M63.25,19.38v-5.83h-7.13V7.78h-5.71V0.29h-5.83v7.49h-9.16V0.29H29.6v7.49H19.5V0.29h-5.83v7.49H7.85v5.77
	H0v5.83h7.85v9.15H0v5.83h7.85v10.11H0v5.83h7.85v5.77h5.82v7.49h5.83v-7.49H29.6v7.49h5.83v-7.49h9.16v7.49h5.83v-7.49h5.71v-5.77
	h7.13v-5.83h-7.13V34.35h7.13v-5.83h-7.13v-9.15H63.25z M56.12,15.45h5.23v2.02h-5.23V15.45z M7.85,48.38H1.9v-2.02h5.95V48.38z
	 M7.85,32.45H1.9v-2.02h5.95V32.45z M7.85,17.47H1.9v-2.02h5.95V17.47z M17.6,61.64h-2.02v-5.59h2.02V61.64z M17.6,7.78h-2.02V2.19
	h2.02V7.78z M31.51,2.19h2.02v5.59h-2.02V2.19z M33.53,61.64h-2.02v-5.59h2.02V61.64z M42.83,42.76H21.14V21.08h21.69L42.83,42.76
	L42.83,42.76z M46.49,2.19h2.02v5.59h-2.02V2.19z M48.51,61.64h-2.02v-5.59h2.02V61.64z M47.68,19.19c-1.51,0-2.73-1.22-2.73-2.73
	c0-1.51,1.22-2.73,2.73-2.73s2.73,1.22,2.73,2.73C50.41,17.97,49.19,19.19,47.68,19.19z M61.35,46.36v2.02h-5.23v-2.02H61.35z
	 M61.35,30.43v2.02h-5.23v-2.02H61.35z"/>
</svg>
