<?xml version="1.0" encoding="utf-8"?>
<!-- Generator: Adobe Illustrator 16.0.0, SVG Export Plug-In . SVG Version: 6.00 Build 0)  -->
<!DOCTYPE svg PUBLIC "-//W3C//DTD SVG 1.1//EN" "http://www.w3.org/Graphics/SVG/1.1/DTD/svg11.dtd">
<svg version="1.1" id="Layer_1" xmlns="http://www.w3.org/2000/svg" xmlns:xlink="http://www.w3.org/1999/xlink" x="0px" y="0px"
	 width="90.16px" height="90.29px" viewBox="0 0 90.16 90.29" enable-background="new 0 0 90.16 90.29" xml:space="preserve">
<g>
	<g>
		<polygon fill="#FCFCFC" points="27.6,87.4 2.88,62.69 2.88,27.73 27.6,3.02 62.55,3.02 87.27,27.73 87.27,62.69 62.55,87.4 		"/>
		<path fill="#010D0B" d="M63.75,90.29H26.41L0,63.879V26.54L26.41,0.13h37.34l26.41,26.41v37.339L63.75,90.29z M28.8,84.52h32.56
			l23.031-23.029V28.93L61.359,5.9H28.8L5.77,28.93v32.561L28.8,84.52z"/>
	</g>
	<g>
		<g>
			<polygon fill="#720C11" points="15.54,34.11 9.52,39.19 24.39,39.19 24.39,61.01 29.66,67.22 29.66,39.37 74.43,39.19 
				80.63,34.11 			"/>
		</g>
		<g>
			<polygon fill="#720C11" points="35.3,23.2 41.41,27.84 56.33,27.84 56.37,45.02 35.3,45.02 35.19,50.661 56.37,67.22 
				62.76,67.22 42.26,50.161 56.93,50.04 61.84,44.64 61.71,27.84 56.55,23.2 			"/>
		</g>
	</g>
</g>
</svg>
