<?xml version="1.0" encoding="UTF-8" standalone="no"?>
<!-- Generator: Adobe Illustrator 17.0.0, SVG Export Plug-In . SVG Version: 6.00 Build 0)  -->

<svg
   xmlns:dc="http://purl.org/dc/elements/1.1/"
   xmlns:cc="http://creativecommons.org/ns#"
   xmlns:rdf="http://www.w3.org/1999/02/22-rdf-syntax-ns#"
   xmlns:svg="http://www.w3.org/2000/svg"
   xmlns="http://www.w3.org/2000/svg"
   xmlns:sodipodi="http://sodipodi.sourceforge.net/DTD/sodipodi-0.dtd"
   xmlns:inkscape="http://www.inkscape.org/namespaces/inkscape"
   version="1.1"
   id="Layer_1"
   x="0px"
   y="0px"
   width="206.7px"
   height="85px"
   viewBox="0 0 206.7 85"
   enable-background="new 0 0 206.7 85"
   xml:space="preserve"
   inkscape:version="0.48.5 r10040"
   sodipodi:docname="troika_logo.svg"><metadata
   id="metadata35"><rdf:RDF><cc:Work
       rdf:about=""><dc:format>image/svg+xml</dc:format><dc:type
         rdf:resource="http://purl.org/dc/dcmitype/StillImage" /><dc:title /></cc:Work></rdf:RDF></metadata><defs
   id="defs33" /><sodipodi:namedview
   pagecolor="#ffffff"
   bordercolor="#666666"
   borderopacity="1"
   objecttolerance="10"
   gridtolerance="10"
   guidetolerance="10"
   inkscape:pageopacity="0"
   inkscape:pageshadow="2"
   inkscape:window-width="1366"
   inkscape:window-height="705"
   id="namedview31"
   showgrid="true"
   inkscape:zoom="5.1493796"
   inkscape:cx="103.35"
   inkscape:cy="13.590909"
   inkscape:window-x="-8"
   inkscape:window-y="-8"
   inkscape:window-maximized="1"
   inkscape:current-layer="Layer_1"><inkscape:grid
     type="xygrid"
     id="grid3008" /></sodipodi:namedview>
<g
   id="g3">
	<polygon
   fill="#010D0B"
   points="8,14.5 0,21.25 19.75,21.25 19.75,50.25 26.75,58.5 26.75,21.5 86.25,21.25 94.5,14.5  "
   id="polygon5" />
	<polygon
   fill="#010D0B"
   points="34.25,0 42.37,6.17 62.2,6.17 62.25,29 34.25,29 34.11,36.5 62.25,58.5 70.75,58.5 43.5,35.83    63,35.67 69.53,28.5 69.35,6.17 62.5,0  "
   id="polygon7" />
	<polygon
   fill="#010D0B"
   points="107,0 107,78.25 114.25,85 114.25,7.25  "
   id="polygon9" />
	<polygon
   fill="#010D0B"
   points="120.25,14.5 120.25,58.5 127.5,58.5 127.5,42.5 145.75,58.5 154,58.5 131.5,38.37 154,14.5    145.75,14.5 127.5,33 127.25,21.25  "
   id="polygon11" />
	<polygon
   fill="#010D0B"
   points="142.87,36.5 162,14.5 169.25,14.5 183.29,38.92 198.79,38.92 206.7,43.92 186.86,43.9 198,65.75    187.75,58.5 179.57,43.88 149.12,43.88 142.87,39 176.61,39 165,18.75 150.57,36.5  "
   id="polygon13" />
	<g
   id="g15">
		<path
   fill="#010D0B"
   d="M94.5,29.25h-15l-7,7.25v14l7,8h15l6.5-8.25V36.5L94.5,29.25z M94.25,50.5H79.5v-14h14.75V50.5z"
   id="path17" />
	</g>
</g>




<g
   id="g3010"><text
     style="font-size:16.0182209px;fill:#010d0b;font-family:Hitchcock"
     y="84.6549"
     x="5.6102762"
     id="text19"
     font-size="14.1882"
     transform="scale(1.1289818,0.88575384)"><tspan
       id="tspan2995"
       style="font-style:normal;font-variant:normal;font-weight:normal;font-stretch:normal;font-family:Georgia;-inkscape-font-specification:Georgia">February </tspan></text>
<g
     transform="translate(0,1.999907)"
     id="g3002"><text
       style="font-size:14.1882px;fill:#010d0b;font-family:MyriadPro-Regular"
       transform="matrix(1.2746,0,0,1,83.878,72.9834)"
       font-size="14.1882"
       id="text21"><tspan
         style="font-style:normal;font-variant:normal;font-weight:normal;font-stretch:normal;font-family:Georgia;-inkscape-font-specification:Georgia"
         id="tspan2997">’</tspan></text>
<g
       id="g2999"><text
         y="82.396935"
         x="76.0867"
         style="font-size:16.0182209px;font-style:normal;font-variant:normal;font-weight:normal;font-stretch:normal;fill:#010d0b;font-family:Georgia;-inkscape-font-specification:Georgia"
         id="text23"
         font-size="14.1882"
         transform="scale(1.1289818,0.88575386)">16</text>
</g></g></g>

<polygon
   fill="#010D0B"
   points="188.53,65.958 123.916,65.958 120.25,63.167 184.957,63.167 "
   id="polygon25" />
<polygon
   fill="#010D0B"
   points="188.53,71.123 123.916,71.123 120.25,68.332 184.957,68.332 "
   id="polygon27" />
<polygon
   fill="#010D0B"
   points="188.53,76.567 123.916,76.567 120.25,73.776 184.957,73.776 "
   id="polygon29" />
</svg>